<?xml version="1.0" ?>
<!DOCTYPE svg PUBLIC "-//W3C//DTD SVG 1.1//EN"
  "http://www.w3.org/Graphics/SVG/1.1/DTD/svg11.dtd">
<svg xmlns="http://www.w3.org/2000/svg" version="1.1" viewBox="0 -151.38 450 450">
  <g id="g34" style="fill:#000000;stroke:#000000" transform="translate(-17.355098,-27.264862)">
    <path class="st0" d="m 193.7,77.6 c 0,13.1 -4.5,24.7 -14,34 -9.4,9.4 -20.7,14 -33.8,14 H 97.7 v 47.9 H 73.8 v -72 h 23.9 48.1 c 6.5,0 12.1,-2.3 16.7,-7 4.7,-4.7 7.2,-10.3 7.2,-16.9 0,-6.5 -2.3,-12.2 -7.2,-16.9 -4.7,-4.7 -10.3,-7 -16.7,-7 H 97.7 L 73.8,29.5 h 72 c 13.1,0 24.5,4.7 33.8,14 9.4,9.6 14.1,20.9 14.1,34.1 z" id="path28" style="fill:#000000;stroke:#000000"></path>
    <path class="st0" d="M 212.2,149.4 200,173.5 h -26.6 l 72,-144 48.1,96.1 h -27 l -21.1,-42.3 -21.2,42.3 z m 105.1,24.1 h -26.8 l -11.9,-23.9 h 26.6 z" id="path30" style="fill:#000000;stroke:#000000"></path>
    <path class="st0" d="m 350.1,29.5 v 4 83.3 l -23.9,24.1 v -107.4 -4 z m 72,119.9 v 24.1 h -95.9 l 23.9,-24.1 z" id="path32" style="fill:#000000;stroke:#000000"></path>
  </g>
  <path class="st1" d="m 448.7449,69.535138 c -0.2,-4.3 -3.1,-7.2 -7.5,-7.3 -2.1,-0.1 -4.1,0 -6.2,0.2 -4.3,0.4 -7,3.5 -7,7.8 0,1.7 0.1,3.4 0.1,5.1 0.1,4 1.8,6.2 5.6,7.5 0.8,0.3 1.1,0.6 1.1,1.4 0,2.7 0.2,5.4 0.2,8.1 0,3.9 -3,7.2 -6.9,7.3 -7.1,0.3 -14.1,0.400002 -21.2,0.700002 -1,0 -1.3,-0.3 -1.3,-1.300002 0,-2.3 -0.1,-4.6 -0.2,-6.9 -0.1,-1 0.4,-1.3 1.3,-1.6 3.6,-0.9 5.6,-3.7 5.5,-7.5 0,-1.9 -0.1,-3.7 -0.2,-5.6 -0.2,-4.3 -3.1,-7.2 -7.4,-7.3 -2,0 -4,0 -6,0.2 -4.4,0.3 -7.2,3.4 -7.2,7.8 0,1.8 0.1,3.6 0.2,5.4 0.2,3.8 2.4,6.5 6.1,7.2 0.9,0.2 1.2,0.5 1.3,1.4 0,2.3 0.1,4.6 0.2,6.9 0.1,1.100002 -0.3,1.400002 -1.4,1.400002 -2.1,0 -4.1,0.1 -6.2,0.2 -6.7,0.3 -11.7,5.5 -11.6,12.2 0,2.9 0.1,5.7 0.3,8.6 l 6.4,-0.1 c 0,-2.7 -0.2,-5.4 -0.2,-8.1 -0.1,-3.9 2.1,-6.2 6,-6.3 5.9,-0.2 11.9,-0.3 17.8,-0.5 5.7,-0.2 11.5,-0.3 17.2,-0.5 0.2,0 0.4,0 0.6,0 7.5,-0.4 13.4,-6.500002 13.3,-14.000002 0,-2.6 -0.1,-5.1 -0.2,-7.7 0,-1 0.2,-1.4 1.3,-1.6 4,-0.6 6.4,-3.5 6.3,-7.6 0.1,-1.7 0,-3.6 -0.1,-5.5 z m -50.6,11 c -0.1,-4.2 -0.5,-4 3.8,-4.1 4.6,-0.1 3.9,-0.4 4,3.9 0.1,4.4 0.6,3.7 -3.8,3.9 -4.2,0.1 -3.8,0.8 -4,-3.7 z m 40.5,-4 c -4.4,0.1 -3.8,0.6 -4,-3.8 -0.1,-4.1 -0.8,-3.9 3.8,-4 4.5,-0.1 4,-0.3 4.1,3.8 0.1,4.4 0.5,3.8 -3.9,4 z" id="path36" style="fill:#000000;stroke:#000000"></path>
  <path class="st0" d="m 55.944902,111.63514 c -1.1,-0.1 -3.4,-0.3 -5.2,-2 -1.6,-1.6 -2.2,-3.7 -2.2,-5.5 -0.1,-5.300002 -0.1,-10.600002 -0.1,-15.900002 -0.1,-8.9 -6,-14.8 -14.9,-14.7 -3.4,0 -6.9,0 -10.3,0.1 -1.1,0 -1.7,-0.2 -2.2,-1.4 -1.2,-3 -3.6,-4.6 -6.9,-4.6 -2.1,0 -4.1,0 -6.1999995,0.1 -3.8,0.2 -6.8,3.2 -6.9,7 -0.10000002,2.2 0,4.4 0,6.6 0.1,3.8 3.1,6.8 6.9,7 2.1999995,0.1 4.4999995,0.1 6.6999995,0 3.7,-0.2 6.4,-2.8 6.8,-6.8 0.2,-1.3 0.6,-1.5 1.7,-1.5 3.6,0 7.2,-0.1 10.9,0 4.4,0 7.6,3.1 7.8,7.5 0.1,1.9 0.7,4.9 0.1,8.6 -0.4,2 -0.7,5.300002 0.1,9.200002 0.6,2.9 1.3,6.4 4.2,9.2 2.5,2.4 5.9,3.7 10,3.8 z m -44.5,-29.800002 c -4.4999995,0 -3.8999995,0.5 -3.9999995,-4 0,-4.4 -0.5,-3.8 3.8999995,-3.9 4.1,0 3.9,-0.7 4,3.9 0,4.5 0.2,4 -3.9,4 z" id="path38" style="fill:#000000;stroke:#000000"></path>
</svg>